<svg width="196" height="40" viewBox="0 0 196 40" fill="none" xmlns="http://www.w3.org/2000/svg">
<path d="M7.71194 11.9458C3.40053 11.9458 0 15.3498 0 19.7263C0 21.6715 0.728687 23.6166 2.06461 25.0755C3.52199 26.656 5.52587 27.5069 7.77266 27.5069C9.29076 27.5069 10.7481 27.0814 11.9626 26.2912C13.2378 25.4402 14.2701 24.2245 14.938 22.644L14.9987 22.5225H11.9626V22.5833C11.1732 24.1637 9.6551 25.0146 7.83339 25.0146C5.64732 25.0146 3.21837 23.4951 3.03619 20.7597H15.4239V20.6989C15.6668 18.1459 14.938 15.8968 13.2378 14.1948C11.7197 12.6752 9.83728 11.9458 7.71194 11.9458ZM7.71194 14.438H7.83339C10.3838 14.438 12.2662 16.4439 12.4484 18.3283H3.03619C3.21837 16.3832 4.97936 14.438 7.71194 14.438Z" fill="#262F36"/>
<path d="M22.406 7.14374H19.4912V27.0815H22.406V7.14374Z" fill="#262F36"/>
<path d="M30.4226 12.3714H27.5078V27.0815H30.4226V12.3714Z" fill="#262F36"/>
<path d="M30.4226 7.14374H27.5078V10.2438H30.4226V7.14374Z" fill="#262F36"/>
<path d="M42.5052 11.9458C37.4044 11.9458 34.6719 15.9576 34.6719 19.6656C34.6719 21.6715 35.4005 23.6166 36.7364 25.0146C38.1939 26.5951 40.1977 27.3854 42.5052 27.3854C47.6061 27.3854 50.3386 23.3734 50.3386 19.6656C50.3386 17.6597 49.6099 15.7145 48.274 14.3164C46.8166 12.736 44.8127 11.9458 42.5052 11.9458ZM37.5866 19.6656C37.5866 16.8086 39.712 14.6811 42.4445 14.6811C43.7804 14.6811 44.9949 15.1674 45.9058 16.0792C46.8166 16.991 47.3024 18.2676 47.3024 19.6656C47.3024 22.5225 45.177 24.65 42.4445 24.65C41.1086 24.65 39.8941 24.1637 38.9832 23.2519C38.1332 22.3401 37.5866 21.0636 37.5866 19.6656Z" fill="#262F36"/>
<path d="M57.3225 14.2558V12.3715H54.5293V27.0817H57.444V19.1794C57.444 16.3834 58.78 14.9245 61.3304 14.9245H61.5732V12.0067H61.5125C59.63 11.946 58.1727 12.7362 57.3225 14.2558Z" fill="#262F36"/>
<path d="M69.8329 21.6106H78.4555C78.1519 22.7654 77.3626 23.9204 76.2696 24.7714C74.9944 25.8048 73.4155 26.3518 71.7153 26.3518C69.8935 26.3518 68.254 25.6831 66.9788 24.4675C65.7036 23.191 65.0356 21.4889 65.0356 19.6654C65.0356 15.8967 67.9504 12.9182 71.7153 12.9182C73.0512 12.9182 74.3264 13.2829 75.4194 13.9515C76.1481 14.377 76.816 14.9848 77.3626 15.7751L77.4233 15.8967H78.82L78.5771 15.4712C77.2412 13.2829 74.5692 11.824 71.7153 11.824C67.2217 11.824 63.8818 15.1673 63.8818 19.6654C63.8818 21.8536 64.6713 23.8596 66.1893 25.3184C67.6468 26.7773 69.5899 27.5067 71.7153 27.5067C74.8728 27.5067 77.7876 25.7439 79.1236 23.0693C79.488 22.34 79.7308 21.6106 79.7916 20.8203L79.8523 20.5163H69.8329V21.6106Z" fill="#262F36"/>
<path d="M84.3439 14.8636V12.6753H83.251V27.1424H84.3439V19.2401C84.3439 15.5323 86.0442 13.4047 88.9589 13.4047H89.3232V12.3714H89.1411C88.048 12.3714 85.8012 12.4929 84.3439 14.8636Z" fill="#262F36"/>
<path d="M98.0691 12.3107C93.7576 12.3107 90.4785 15.5323 90.4785 19.9089C90.4785 21.9756 91.268 23.9207 92.6646 25.3189C94.0612 26.7169 96.0044 27.5071 98.0691 27.5071C102.38 27.5071 105.659 24.2247 105.659 19.9089C105.659 17.8421 104.87 15.897 103.473 14.4989C102.077 13.0401 100.194 12.3107 98.0691 12.3107ZM98.0691 26.413C96.2473 26.413 94.6078 25.7443 93.3933 24.5286C92.1787 23.3128 91.5108 21.6716 91.5108 19.8482C91.5108 16.0794 94.3041 13.2832 98.0082 13.2832C99.83 13.2832 101.47 13.9518 102.684 15.1676C103.899 16.3833 104.566 18.0245 104.566 19.8482C104.627 23.6168 101.773 26.413 98.0691 26.413Z" fill="#262F36"/>
<path d="M122.36 20.9421C122.36 24.3461 120.295 26.352 116.773 26.4128H116.652C114.891 26.4128 113.494 25.8658 112.583 24.7716C111.672 23.7383 111.247 22.2795 111.247 20.3951V12.6145H110.154V20.3951C110.154 24.8324 112.462 27.3246 116.652 27.4463C116.712 27.4463 116.773 27.4463 116.834 27.4463C119.324 27.4463 121.388 26.4128 122.36 24.6501C122.36 25.5011 122.36 26.2305 122.36 26.9599V27.1423H123.453V12.6753H122.36V20.9421Z" fill="#262F36"/>
<path d="M141.911 14.6205C140.514 13.1009 138.57 12.3107 136.324 12.3107C133.53 12.3107 131.284 13.5871 129.887 15.8362V12.6754H128.794V32.8563H129.887V23.9815C130.919 25.8051 133.288 27.5071 136.324 27.5071C141.243 27.5071 143.915 23.6168 143.915 19.9089C143.975 17.903 143.246 16.0186 141.911 14.6205ZM136.263 13.3441C140.574 13.3441 142.821 16.6265 142.882 19.9089C142.882 23.6777 140.089 26.4737 136.384 26.4737C134.563 26.4737 132.923 25.8051 131.709 24.5894C130.494 23.3737 129.826 21.7324 129.826 19.9089C129.826 18.0853 130.494 16.4441 131.648 15.2283C132.862 14.0127 134.502 13.3441 136.263 13.3441Z" fill="#262F36"/>
<path d="M175.241 0.0325555C173.62 0.0974905 172.03 0.35723 170.474 0.811775L171.803 4.54553C173.036 4.22086 174.301 4.02605 175.566 3.99359C183.837 3.73385 190.907 9.83773 191.945 18.0195H189.156L190.226 21.9481H194.021C195.124 21.9481 196 21.0715 196 19.9676C195.967 8.92864 187.015 -0.0323795 175.987 8.7949e-05C175.728 8.7949e-05 175.469 0.0325555 175.241 0.0325555Z" fill="url(#paint0_linear)"/>
<path d="M175.242 0.032542C164.895 0.422152 156.462 8.83122 156.073 19.2208C155.878 24.1883 157.533 29.0585 160.744 32.8571L163.533 30.0325C161.263 27.2403 160.03 23.7338 159.998 20.1299C159.933 11.4286 166.874 4.18838 175.566 3.96111C176.799 3.92864 178.031 4.02604 179.231 4.28578L179.523 0.324749C178.128 0.0650094 176.669 -0.0323929 175.242 0.032542Z" fill="url(#paint1_linear)"/>
<path d="M176.02 40C177.739 40 179.426 39.7403 181.048 39.2208C182.086 38.8637 182.604 37.7273 182.248 36.7208C181.891 35.6818 180.756 35.1624 179.75 35.5195H179.718C178.518 35.8766 177.285 36.0715 176.02 36.0715C170.377 36.0715 165.155 33.0844 162.236 28.2143L158.992 30.4221C162.625 36.3637 169.079 40 176.02 40Z" fill="url(#paint2_linear)"/>
<path d="M191.621 16.3637C191.751 16.9156 191.848 17.4676 191.913 18.0195H176.961L173.166 12.5975C172.55 11.6884 171.317 11.4286 170.409 12.0455C169.501 12.6624 169.274 13.8637 169.858 14.7728C169.858 14.7728 169.858 14.8052 169.89 14.8052L174.917 21.9806H194.021C195.124 21.9806 196 21.1039 196 20C196 18.6689 195.87 17.3702 195.611 16.0715L191.621 16.3637Z" fill="#009580"/>
<defs>
<linearGradient id="paint0_linear" x1="175.449" y1="3.78258" x2="195.023" y2="16.9284" gradientUnits="userSpaceOnUse">
<stop stop-color="#6CA733"/>
<stop offset="0.14" stop-color="#66A637"/>
<stop offset="0.31" stop-color="#55A343"/>
<stop offset="0.52" stop-color="#3A9F57"/>
<stop offset="0.74" stop-color="#149872"/>
<stop offset="0.84" stop-color="#009580"/>
</linearGradient>
<linearGradient id="paint1_linear" x1="177.755" y1="2.25669" x2="158.996" y2="21.8191" gradientUnits="userSpaceOnUse">
<stop stop-color="#6CA733"/>
<stop offset="0.14" stop-color="#72A933"/>
<stop offset="0.34" stop-color="#83AE33"/>
<stop offset="0.55" stop-color="#9EB733"/>
<stop offset="0.79" stop-color="#C4C333"/>
<stop offset="0.84" stop-color="#CDC633"/>
</linearGradient>
<linearGradient id="paint2_linear" x1="158.987" y1="34.0982" x2="182.372" y2="34.0982" gradientUnits="userSpaceOnUse">
<stop offset="0.18" stop-color="#CDC633"/>
<stop offset="0.37" stop-color="#D5CE4F"/>
<stop offset="0.79" stop-color="#E8E397"/>
<stop offset="1" stop-color="#F2EEBE"/>
</linearGradient>
</defs>
</svg>
