<?xml version="1.0" encoding="UTF-8" standalone="no"?>
<svg
   version="1.1"
   width="2250"
   height="669"
   style="clip-rule:evenodd;fill-rule:evenodd;image-rendering:optimizeQuality;shape-rendering:geometricPrecision;text-rendering:geometricPrecision"
   id="svg53261"
   sodipodi:docname="Ferrovie_del_Sud_Est_logo.svg"
   inkscape:version="1.2 (dc2aedaf03, 2022-05-15)"
   xmlns:inkscape="http://www.inkscape.org/namespaces/inkscape"
   xmlns:sodipodi="http://sodipodi.sourceforge.net/DTD/sodipodi-0.dtd"
   xmlns="http://www.w3.org/2000/svg"
   xmlns:svg="http://www.w3.org/2000/svg">
  <defs
     id="defs53265">
    <clipPath
       clipPathUnits="userSpaceOnUse"
       id="clipPath53895">
      <path
         d="m -2604.8506,-69.8249 h 2834.646 v 1984.252 h -2834.646 z"
         id="path53897"
         style="stroke-width:0.999998" />
    </clipPath>
    <clipPath
       clipPathUnits="userSpaceOnUse"
       id="clipPath53891">
      <path
         d="m -2646.9155,-89.0709 h 2834.646 v 1984.252 h -2834.646 z"
         id="path53893"
         style="stroke-width:0.999998" />
    </clipPath>
    <clipPath
       clipPathUnits="userSpaceOnUse"
       id="clipPath53887">
      <path
         d="m -2645.9055,-86.8404 h 2834.646 v 1984.252 h -2834.646 z"
         id="path53889"
         style="stroke-width:0.999998" />
    </clipPath>
    <clipPath
       clipPathUnits="userSpaceOnUse"
       id="clipPath53883">
      <path
         d="m -2624.7505,-58.2233 h 2834.646 v 1984.252 h -2834.646 z"
         id="path53885"
         style="stroke-width:0.999998" />
    </clipPath>
    <clipPath
       clipPathUnits="userSpaceOnUse"
       id="clipPath53879">
      <path
         d="m -2583.4805,-30.2156 h 2834.646 v 1984.252 h -2834.646 z"
         id="path53881"
         style="stroke-width:0.999998" />
    </clipPath>
    <clipPath
       clipPathUnits="userSpaceOnUse"
       id="clipPath53875">
      <path
         d="m -2588.6404,-28.5398 h 2834.646 v 1984.252 h -2834.646 z"
         id="path53877"
         style="stroke-width:0.999998" />
    </clipPath>
    <clipPath
       clipPathUnits="userSpaceOnUse"
       id="clipPath53871">
      <path
         d="m -2596.5405,-29.4382 h 2834.646 v 1984.252 h -2834.646 z"
         id="path53873"
         style="stroke-width:0.999998" />
    </clipPath>
    <clipPath
       clipPathUnits="userSpaceOnUse"
       id="clipPath53867">
      <path
         d="m -2602.8005,-31.7742 h 2834.646 v 1984.252 h -2834.646 z"
         id="path53869"
         style="stroke-width:0.999998" />
    </clipPath>
    <clipPath
       clipPathUnits="userSpaceOnUse"
       id="clipPath53863">
      <path
         d="m -2608.6904,-31.7742 h 2834.646 v 1984.252 h -2834.646 z"
         id="path53865"
         style="stroke-width:0.999998" />
    </clipPath>
    <clipPath
       clipPathUnits="userSpaceOnUse"
       id="clipPath53859">
      <path
         d="m -2613.8154,-28.3602 h 2834.646 v 1984.252 h -2834.646 z"
         id="path53861"
         style="stroke-width:0.999998" />
    </clipPath>
    <clipPath
       clipPathUnits="userSpaceOnUse"
       id="clipPath3103">
      <path
         d="M 0,0 H 2834.646 V 1984.252 H 0 Z"
         id="path3101" />
    </clipPath>
    <clipPath
       clipPathUnits="userSpaceOnUse"
       id="clipPath3133">
      <path
         d="M 0,0 H 2834.646 V 1984.252 H 0 Z"
         id="path3131" />
    </clipPath>
    <clipPath
       clipPathUnits="userSpaceOnUse"
       id="clipPath3157">
      <path
         d="M 0,0 H 2834.646 V 1984.252 H 0 Z"
         id="path3155" />
    </clipPath>
    <clipPath
       clipPathUnits="userSpaceOnUse"
       id="clipPath3185">
      <path
         d="M 0,0 H 2834.646 V 1984.252 H 0 Z"
         id="path3183" />
    </clipPath>
    <clipPath
       clipPathUnits="userSpaceOnUse"
       id="clipPath3225">
      <path
         d="M 0,0 H 2834.646 V 1984.252 H 0 Z"
         id="path3223" />
    </clipPath>
  </defs>
  <sodipodi:namedview
     id="namedview53263"
     pagecolor="#ffffff"
     bordercolor="#000000"
     borderopacity="0.25"
     inkscape:showpageshadow="2"
     inkscape:pageopacity="0.0"
     inkscape:pagecheckerboard="0"
     inkscape:deskcolor="#d1d1d1"
     showgrid="false"
     inkscape:zoom="0.23691406"
     inkscape:cx="1641.9456"
     inkscape:cy="403.09975"
     inkscape:window-width="1920"
     inkscape:window-height="1022"
     inkscape:window-x="-8"
     inkscape:window-y="-8"
     inkscape:window-maximized="1"
     inkscape:current-layer="svg53261" />
  <g
     id="g54639"
     transform="matrix(7.9592698,0,0,7.9592698,-3258.3306,-1882.8095)">
    <g
       id="g3049"
       transform="matrix(1.3333333,0,0,-1.3333333,446.98237,265.30357)"
       clip-path="url(#clipPath53895)">
      <path
         d="m 0,0 -15.565,-1.576 -10.49,-20.793 c 8.295,0 12.555,0.81 17.405,7.724 C -6.6,-11.689 -2.97,-5.804 0,0"
         style="fill:#006260;fill-opacity:1;fill-rule:nonzero;stroke:none"
         id="path3051" />
    </g>
    <g
       id="g3053"
       transform="matrix(1.3333333,0,0,-1.3333333,503.06897,239.64223)"
       clip-path="url(#clipPath53891)">
      <path
         d="m 0,0 1.19,2.315 h -32.715 c -11.095,0 -16.75,-3.752 -20.195,-10.699 -2.695,-5.436 -2.685,-5.442 -2.685,-5.442 h 14.86 c 5.285,10.117 11.72,13.607 27.47,13.826"
         style="fill:#006260;fill-opacity:1;fill-rule:nonzero;stroke:none"
         id="path3055" />
    </g>
    <g
       id="g3057"
       transform="matrix(1.3333333,0,0,-1.3333333,501.72227,242.61623)"
       clip-path="url(#clipPath53887)">
      <path
         d="m 0,0 c -19.955,-0.176 -23.27,-3.423 -27.79,-11.598 l 22.07,-0.005"
         style="fill:#006260;fill-opacity:1;fill-rule:nonzero;stroke:none"
         id="path3059" />
    </g>
    <g
       id="g3061"
       transform="matrix(1.3333333,0,0,-1.3333333,473.51557,280.77237)"
       clip-path="url(#clipPath53883)">
      <path
         d="m 0,0 c -1.31,-7.344 -7.105,-13.142 -14.465,-14.478 0,0 -4.4,-0.766 -7.295,-0.766 -2.885,-0.006 -26.345,0 -26.345,0 l 1.015,2.07 c 0,0 8.925,0.069 10.12,0.069 3.075,-0.069 8.655,0.605 8.655,0.605 6.29,0.658 11.235,4.756 12.805,10.725 l 1.78,6.008 c 0.96,4.984 5.355,8.754 10.625,8.754 L 13.965,14.065 13.15,12.434 7.895,12.108 C 3.98,11.787 0.85,8.74 0.405,4.875"
         style="fill:#e51636;fill-opacity:1;fill-rule:nonzero;stroke:none"
         id="path3063" />
    </g>
    <g
       id="g3065"
       transform="matrix(1.3333333,0,0,-1.3333333,418.48897,318.11596)"
       clip-path="url(#clipPath53879)">
      <path
         d="m 0,0 c -0.57,-1.141 -1.77,-1.824 -3.165,-1.824 -2.105,0 -3.57,1.51 -3.57,3.683 0,2.19 1.475,3.709 3.62,3.709 0.9,0 1.75,-0.277 2.345,-0.773 0.31,-0.248 0.44,-0.399 0.75,-0.834 L -1.265,3.23 c -0.26,0.336 -0.4,0.458 -0.72,0.635 -0.345,0.196 -0.7,0.281 -1.09,0.281 -1.27,0 -2.155,-0.947 -2.155,-2.304 0,-1.342 0.9,-2.301 2.145,-2.301 0.63,0 1.24,0.268 1.545,0.695 0.15,0.213 0.2,0.344 0.275,0.674 h -1.85 V 2.223 H 0.42 V 2.152 C 0.42,1.228 0.305,0.588 0,0"
         style="fill:#006260;fill-opacity:1;fill-rule:nonzero;stroke:none"
         id="path3067" />
    </g>
    <g
       id="g3069"
       transform="matrix(1.3333333,0,0,-1.3333333,425.36877,320.35036)"
       clip-path="url(#clipPath53875)">
      <path
         d="M 0,0 -1.86,2.973 V 0 h -1.495 v 7.053 h 1.98 c 0.91,0 1.88,-0.073 2.415,-0.907 C 1.26,5.793 1.37,5.375 1.37,4.963 1.37,4.312 1.12,3.635 0.56,3.271 0.33,3.123 0.05,3.055 -0.22,2.992 L 1.815,0 m -3.15,5.822 h -0.52 V 3.967 h 0.55 c 0.415,0 0.81,0.039 1.05,0.433 0.09,0.157 0.13,0.33 0.13,0.506 0,0.717 -0.59,0.916 -1.21,0.916"
         style="fill:#006260;fill-opacity:1;fill-rule:nonzero;stroke:none"
         id="path3071" />
    </g>
    <g
       id="g3073"
       transform="matrix(1.3333333,0,0,-1.3333333,435.90227,319.1525)"
       clip-path="url(#clipPath53871)">
      <path
         d="m 0,0 c -0.54,-0.779 -1.44,-1.092 -2.355,-1.092 -1.085,0 -2.225,0.483 -2.63,1.553 C -5.15,0.865 -5.18,1.309 -5.18,1.744 v 4.41 h 1.495 V 1.795 c 0,-0.375 0.01,-0.699 0.25,-1.018 0.26,-0.345 0.72,-0.49 1.135,-0.49 0.945,0 1.3,0.592 1.3,1.457 v 4.41 H 0.495 V 2.227 C 0.495,1.457 0.46,0.658 0,0"
         style="fill:#006260;fill-opacity:1;fill-rule:nonzero;stroke:none"
         id="path3075" />
    </g>
    <g
       id="g3077"
       transform="matrix(1.3333333,0,0,-1.3333333,444.24897,316.03783)"
       clip-path="url(#clipPath53867)">
      <path
         d="m 0,0 c -0.49,-0.479 -1.185,-0.561 -1.855,-0.561 h -0.73 v -2.671 h -1.53 v 7.05 h 2.055 c 0.145,0 0.29,0 0.435,-0.007 C -0.87,3.77 -0.21,3.578 0.26,2.938 0.54,2.559 0.645,2.076 0.645,1.621 0.645,1.014 0.435,0.434 0,0 M -1.46,2.5 C -1.62,2.539 -1.775,2.539 -1.94,2.539 H -2.575 V 0.744 h 0.67 c 0.585,0 1.05,0.236 1.05,0.885 0,0.398 -0.195,0.771 -0.605,0.871"
         style="fill:#006260;fill-opacity:1;fill-rule:nonzero;stroke:none"
         id="path3079" />
    </g>
    <g
       id="g3081"
       transform="matrix(1.3333333,0,0,-1.3333333,452.10217,316.03783)"
       clip-path="url(#clipPath53863)">
      <path
         d="m 0,0 c -0.485,-0.479 -1.19,-0.561 -1.855,-0.561 h -0.73 V -3.232 H -4.11 v 7.05 h 2.055 c 0.14,0 0.29,0 0.43,-0.007 C -0.87,3.77 -0.21,3.578 0.26,2.938 0.54,2.559 0.645,2.076 0.645,1.621 0.645,1.014 0.44,0.434 0,0 m -1.46,2.5 c -0.155,0.039 -0.315,0.039 -0.475,0.039 h -0.64 V 0.744 h 0.67 c 0.59,0 1.055,0.236 1.055,0.885 0,0.398 -0.2,0.771 -0.61,0.871"
         style="fill:#006260;fill-opacity:1;fill-rule:nonzero;stroke:none"
         id="path3083" />
    </g>
    <g
       id="g3085"
       transform="matrix(1.3333333,0,0,-1.3333333,458.93547,320.58983)"
       clip-path="url(#clipPath53859)">
      <path
         d="m 0,0 c -2.24,0 -3.8,1.496 -3.8,3.635 0,2.187 1.57,3.777 3.725,3.777 2.17,0 3.78,-1.59 3.78,-3.715 C 3.705,1.514 2.18,0 0,0 m -0.02,5.947 c -1.25,0 -2.22,-1.006 -2.22,-2.269 0,-1.286 0.97,-2.239 2.255,-2.239 1.2,0 2.115,0.965 2.115,2.239 0,1.295 -0.915,2.269 -2.15,2.269"
         style="fill:#006260;fill-opacity:1;fill-rule:nonzero;stroke:none"
         id="path3087" />
    </g>
    <g
       id="g3089"
       transform="matrix(1.3333333,0,0,-1.3333333,472.08227,316.41023)">
      <path
         d="M 0,0 V -2.961 H -1.535 V 4.1 h 4.09 V 2.764 H 0 V 1.379 H 2.555 V 0"
         style="fill:#006260;fill-opacity:1;fill-rule:nonzero;stroke:none"
         id="path3091" />
    </g>
    <g
       id="g3093"
       transform="matrix(1.3333333,0,0,-1.3333333,479.02897,312.76956)">
      <path
         d="M 0,0 V -1.4 H 2.42 V -2.77 H 0 V -4.275 H 2.47 V -5.69 h -4 V 1.367 H 2.48 V 0"
         style="fill:#006260;fill-opacity:1;fill-rule:nonzero;stroke:none"
         id="path3095" />
    </g>
    <g
       id="g3097"
       transform="matrix(1.3333333,0,0,-1.3333333,-3026.1516,358.40343)">
      <g
         id="g3099"
         clip-path="url(#clipPath3103)">
        <g
           id="g3105"
           transform="translate(2636.1555,28.5398)">
          <path
             d="M 0,0 -1.865,2.973 V 0 h -1.49 V 7.053 H -1.38 C -0.47,7.053 0.5,6.98 1.04,6.146 1.255,5.793 1.37,5.375 1.37,4.963 1.37,4.312 1.115,3.635 0.56,3.271 0.325,3.123 0.05,3.055 -0.22,2.992 L 1.82,0 M -1.335,5.822 H -1.86 V 3.967 h 0.55 c 0.42,0 0.81,0.039 1.05,0.433 0.09,0.157 0.13,0.33 0.13,0.506 0,0.717 -0.59,0.916 -1.205,0.916"
             style="fill:#006260;fill-opacity:1;fill-rule:nonzero;stroke:none"
             id="path3107" />
        </g>
        <g
           id="g3109"
           transform="translate(2642.2156,28.5398)">
          <path
             d="M 0,0 -1.865,2.973 V 0 h -1.49 v 7.053 h 1.98 C -0.47,7.053 0.5,6.98 1.04,6.146 1.26,5.793 1.37,5.375 1.37,4.963 1.37,4.312 1.12,3.635 0.56,3.271 0.33,3.123 0.05,3.055 -0.22,2.992 L 1.82,0 M -1.34,5.822 H -1.86 V 3.967 h 0.555 c 0.415,0 0.805,0.039 1.05,0.433 0.085,0.157 0.125,0.33 0.125,0.506 0,0.717 -0.59,0.916 -1.21,0.916"
             style="fill:#006260;fill-opacity:1;fill-rule:nonzero;stroke:none"
             id="path3111" />
        </g>
        <g
           id="g3113"
           transform="translate(2648.5254,28.3602)">
          <path
             d="m 0,0 c -2.235,0 -3.795,1.496 -3.795,3.635 0,2.187 1.57,3.777 3.72,3.777 2.17,0 3.785,-1.59 3.785,-3.715 C 3.71,1.514 2.185,0 0,0 m -0.015,5.947 c -1.25,0 -2.22,-1.006 -2.22,-2.269 0,-1.286 0.97,-2.239 2.255,-2.239 1.2,0 2.115,0.965 2.115,2.239 0,1.295 -0.915,2.269 -2.15,2.269"
             style="fill:#006260;fill-opacity:1;fill-rule:nonzero;stroke:none"
             id="path3115" />
        </g>
      </g>
    </g>
    <g
       id="g3117"
       transform="matrix(1.3333333,0,0,-1.3333333,516.43547,320.3581)">
      <path
         d="M 0,0 H -1.475 L -4.11,7.06 h 1.675 L -0.67,2.02 1.1,7.06 h 1.66"
         style="fill:#006260;fill-opacity:1;fill-rule:nonzero;stroke:none"
         id="path3119" />
    </g>
    <path
       d="m 521.45627,320.3501 h 2.0493 v -9.404 h -2.0493 z"
       style="fill:#006260;fill-opacity:1;fill-rule:nonzero;stroke:none;stroke-width:1.33333"
       id="path3121" />
    <g
       id="g3123"
       transform="matrix(1.3333333,0,0,-1.3333333,528.06215,312.76956)">
      <path
         d="M 0,0 V -1.4 H 2.415 V -2.77 H 0 V -4.275 H 2.465 V -5.69 h -3.99 v 7.057 h 4 V 0"
         style="fill:#006260;fill-opacity:1;fill-rule:nonzero;stroke:none"
         id="path3125" />
    </g>
    <g
       id="g3127"
       transform="matrix(1.3333333,0,0,-1.3333333,-3026.1516,358.40343)">
      <g
         id="g3129"
         clip-path="url(#clipPath3133)">
        <g
           id="g3135"
           transform="translate(2677.4304,29.2098)">
          <path
             d="m 0,0 c -0.83,-0.631 -1.75,-0.668 -2.75,-0.668 h -1.64 v 7.051 h 1.425 C -1.48,6.383 -0.08,6.262 0.75,4.84 1.095,4.242 1.265,3.637 1.265,2.934 1.265,1.875 0.865,0.658 0,0 M -0.99,4.734 C -1.45,5.103 -2.075,5.152 -2.65,5.152 H -2.855 V 0.564 h 0.415 c 1.47,0 2.205,0.909 2.205,2.332 0,0.682 -0.205,1.397 -0.755,1.838"
             style="fill:#006260;fill-opacity:1;fill-rule:nonzero;stroke:none"
             id="path3137" />
        </g>
      </g>
    </g>
    <g
       id="g3139"
       transform="matrix(1.3333333,0,0,-1.3333333,549.38895,312.76956)">
      <path
         d="M 0,0 V -1.4 H 2.41 V -2.77 H 0 V -4.275 H 2.46 V -5.69 H -1.53 V 1.367 H 2.475 V 0"
         style="fill:#006260;fill-opacity:1;fill-rule:nonzero;stroke:none"
         id="path3141" />
    </g>
    <g
       id="g3143"
       transform="matrix(1.3333333,0,0,-1.3333333,554.61548,320.3581)">
      <path
         d="M 0,0 V 7.06 H 1.535 V 1.393 h 2.41 V 0"
         style="fill:#006260;fill-opacity:1;fill-rule:nonzero;stroke:none"
         id="path3145" />
    </g>
    <g
       id="g3147"
       transform="matrix(1.3333333,0,0,-1.3333333,561.59561,320.3581)">
      <path
         d="M 0,0 V 7.06 H 1.535 V 1.393 H 3.94 V 0"
         style="fill:#006260;fill-opacity:1;fill-rule:nonzero;stroke:none"
         id="path3149" />
    </g>
    <g
       id="g3151"
       transform="matrix(1.3333333,0,0,-1.3333333,-3026.1516,358.40343)">
      <g
         id="g3153"
         clip-path="url(#clipPath3157)">
        <g
           id="g3159"
           transform="translate(2699.3655,28.3602)">
          <path
             d="m 0,0 c -2.24,0 -3.795,1.496 -3.795,3.635 0,2.187 1.57,3.777 3.72,3.777 C 2.09,7.412 3.71,5.822 3.71,3.697 3.71,1.514 2.18,0 0,0 m -0.025,5.947 c -1.245,0 -2.215,-1.006 -2.215,-2.269 0,-1.286 0.97,-2.239 2.255,-2.239 1.2,0 2.115,0.965 2.115,2.239 0,1.295 -0.915,2.269 -2.155,2.269"
             style="fill:#006260;fill-opacity:1;fill-rule:nonzero;stroke:none"
             id="path3161" />
        </g>
        <g
           id="g3163"
           transform="translate(2709.4255,28.3776)">
          <path
             d="m 0,0 c -0.905,0 -1.615,0.395 -2.255,1.012 l 1,1.093 C -0.9,1.695 -0.51,1.311 0.07,1.311 c 0.48,0 0.89,0.336 0.89,0.839 0,0.248 -0.1,0.438 -0.28,0.6 -0.18,0.154 -0.415,0.268 -0.64,0.365 -0.955,0.463 -1.905,1.043 -1.905,2.24 0,1.272 1.065,2.051 2.265,2.051 0.9,0 1.425,-0.328 2.025,-0.947 L 1.45,5.355 C 1.18,5.717 0.88,6.027 0.4,6.027 0.04,6.027 -0.27,5.773 -0.27,5.404 -0.27,4.311 2.565,4.516 2.565,2.318 2.565,0.842 1.4,0 0,0"
             style="fill:#006260;fill-opacity:1;fill-rule:nonzero;stroke:none"
             id="path3165" />
        </g>
      </g>
    </g>
    <g
       id="g3167"
       transform="matrix(1.3333333,0,0,-1.3333333,595.04228,312.7593)">
      <path
         d="m 0,0 v -5.691 h -1.525 v 5.67 h -1.51 v 1.38 h 4.54 V 0"
         style="fill:#006260;fill-opacity:1;fill-rule:nonzero;stroke:none"
         id="path3169" />
    </g>
    <g
       id="g3171"
       transform="matrix(1.3333333,0,0,-1.3333333,604.70215,320.3581)">
      <path
         d="M 0,0 -0.545,1.434 H -3.47 L -3.99,0 h -1.635 l 2.76,7.06 h 1.63 L 1.66,0 m -3.7,5.549 -0.95,-2.787 h 1.935 z"
         style="fill:#006260;fill-opacity:1;fill-rule:nonzero;stroke:none"
         id="path3173" />
    </g>
    <g
       id="g3175"
       transform="matrix(1.3333333,0,0,-1.3333333,611.04228,312.7593)">
      <path
         d="m 0,0 v -5.691 h -1.525 v 5.67 H -3.03 v 1.38 H 1.51 V 0"
         style="fill:#006260;fill-opacity:1;fill-rule:nonzero;stroke:none"
         id="path3177" />
    </g>
    <g
       id="g3179"
       transform="matrix(1.3333333,0,0,-1.3333333,-3026.1516,358.40343)">
      <g
         id="g3181"
         clip-path="url(#clipPath3185)">
        <g
           id="g3187"
           transform="translate(2733.8354,28.3602)">
          <path
             d="m 0,0 c -2.235,0 -3.79,1.496 -3.79,3.635 0,2.187 1.565,3.777 3.72,3.777 2.165,0 3.785,-1.59 3.785,-3.715 C 3.715,1.514 2.19,0 0,0 m -0.02,5.947 c -1.245,0 -2.215,-1.006 -2.215,-2.269 0,-1.286 0.97,-2.239 2.255,-2.239 1.2,0 2.12,0.965 2.12,2.239 0,1.295 -0.92,2.269 -2.16,2.269"
             style="fill:#006260;fill-opacity:1;fill-rule:nonzero;stroke:none"
             id="path3189" />
        </g>
      </g>
    </g>
    <path
       d="m 630.04295,320.3501 h 2.04933 v -9.404 h -2.04933 z"
       style="fill:#006260;fill-opacity:1;fill-rule:nonzero;stroke:none;stroke-width:1.33333"
       id="path3191" />
    <g
       id="g3193"
       transform="matrix(1.3333333,0,0,-1.3333333,637.68228,312.7593)">
      <path
         d="m 0,0 v -5.691 h -1.525 v 5.67 h -1.51 v 1.38 h 4.54 V 0"
         style="fill:#006260;fill-opacity:1;fill-rule:nonzero;stroke:none"
         id="path3195" />
    </g>
    <g
       id="g3197"
       transform="matrix(1.3333333,0,0,-1.3333333,647.34241,320.3581)">
      <path
         d="m 0,0 -0.545,1.434 h -2.93 L -3.99,0 h -1.635 l 2.765,7.06 h 1.625 L 1.66,0 m -3.705,5.549 -0.95,-2.787 h 1.94 z"
         style="fill:#006260;fill-opacity:1;fill-rule:nonzero;stroke:none"
         id="path3199" />
    </g>
    <g
       id="g3201"
       transform="matrix(1.3333333,0,0,-1.3333333,650.95574,320.3581)">
      <path
         d="M 0,0 V 7.06 H 1.535 V 1.393 H 3.94 V 0"
         style="fill:#006260;fill-opacity:1;fill-rule:nonzero;stroke:none"
         id="path3203" />
    </g>
    <path
       d="m 657.90294,320.3501 h 2.04667 v -9.404 h -2.04667 z"
       style="fill:#006260;fill-opacity:1;fill-rule:nonzero;stroke:none;stroke-width:1.33333"
       id="path3205" />
    <g
       id="g3207"
       transform="matrix(1.3333333,0,0,-1.3333333,668.82228,320.3581)">
      <path
         d="M 0,0 -0.54,1.434 H -3.47 L -3.99,0 h -1.635 l 2.765,7.06 h 1.63 L 1.66,0 m -3.7,5.549 -0.95,-2.787 h 1.935 z"
         style="fill:#006260;fill-opacity:1;fill-rule:nonzero;stroke:none"
         id="path3209" />
    </g>
    <g
       id="g3211"
       transform="matrix(1.3333333,0,0,-1.3333333,678.73561,320.3581)">
      <path
         d="M 0,0 -3.305,4.736 -3.265,0 h -1.45 v 7.06 h 1.39 L -0.04,2.41 -0.07,7.06 H 1.37 V 0"
         style="fill:#006260;fill-opacity:1;fill-rule:nonzero;stroke:none"
         id="path3213" />
    </g>
    <g
       id="g3215"
       transform="matrix(1.3333333,0,0,-1.3333333,684.76881,312.76956)">
      <path
         d="M 0,0 V -1.4 H 2.41 V -2.77 H 0 V -4.275 H 2.46 V -5.69 H -1.53 V 1.367 H 2.475 V 0"
         style="fill:#006260;fill-opacity:1;fill-rule:nonzero;stroke:none"
         id="path3217" />
    </g>
    <g
       id="g3219"
       transform="matrix(1.3333333,0,0,-1.3333333,-3026.1516,358.40343)">
      <g
         id="g3221"
         clip-path="url(#clipPath3225)">
        <g
           id="g3227"
           transform="translate(2764.5554,64.2645)">
          <path
             d="m 0,0 -1.27,-2.608 h -13.545 l 6.185,12.716 c 0.065,0.142 0.105,0.31 0.105,0.491 -0.005,0.168 -0.04,0.331 -0.1,0.47 H 3.455 L 2.145,8.377 C 1.99,8.691 1.705,8.902 1.38,8.902 H -5.58 L -7.165,5.641 H -0.13 L -1.44,2.955 C -1.585,3.267 -1.875,3.478 -2.2,3.478 h -6.02 l -1.91,-3.927 h 8.745 C -1.03,-0.449 -0.275,-0.26 0,0 m -16.05,11.074 c 0.065,-0.144 0.095,-0.307 0.1,-0.475 0,-0.181 -0.035,-0.353 -0.11,-0.5 l -6.175,-12.707 3.635,0.008 6.655,13.674 z m -13.995,0 0.47,-10.383 7.64,9.408 c 0.105,0.125 0.17,0.301 0.17,0.5 -0.005,0.182 -0.06,0.352 -0.16,0.475 h 3.75 l -11.66,-13.682 h -2.725 l -0.575,12.707 c -0.025,0.426 -0.215,0.801 -0.51,0.975 z m -22.52,-8.885 c -0.04,4.281 3.835,9.426 10.37,9.426 1.96,0 6.475,-0.658 6.525,-5.232 0.035,-4.275 -4.16,-9.5 -10.69,-9.5 -1.965,0 -6.16,0.74 -6.205,5.306 m 13.4,4.919 c -0.075,1.737 -1.21,2.599 -3.15,2.507 -3.97,-0.189 -7.01,-5.016 -6.875,-8.07 0.08,-1.739 1.125,-2.729 3.055,-2.635 3.985,0.185 7.11,5.117 6.97,8.198 m -18.05,0.755 c -0.005,0.424 -0.35,1.034 -1.205,1.034 h -3.625 l -1.795,-3.692 3.4,0.006 c 1.935,0 3.24,1.223 3.225,2.652 M -71.28,-2.608 -65.1,10.094 c 0.065,0.152 0.105,0.324 0.105,0.505 -0.005,0.168 -0.035,0.331 -0.095,0.47 l 7.265,0.005 c 1.405,0 4.07,0.037 4.095,-3.211 0.035,-2.912 -2.825,-4.615 -4.03,-4.783 l 1.11,-4.707 c 0.115,-0.5 0.425,-0.84 0.665,-0.981 h -3.905 l -1.21,5.657 h -3.795 l -2.755,-5.657 h -3.635 z M -73.995,7.863 C -74,8.287 -74.35,8.897 -75.2,8.897 h -3.62 l -1.805,-3.692 3.4,0.006 c 1.94,0 3.245,1.223 3.23,2.652 m -14.06,-10.471 6.17,12.702 c 0.07,0.152 0.11,0.324 0.11,0.505 -0.005,0.168 -0.04,0.331 -0.095,0.47 l 7.265,0.005 c 1.4,0 4.065,0.037 4.105,-3.211 0.02,-2.912 -2.83,-4.615 -4.035,-4.783 l 1.1,-4.707 c 0.12,-0.5 0.435,-0.84 0.67,-0.981 h -3.9 l -1.21,5.657 h -3.805 l -2.745,-5.657 h -3.64 z M -88.73,0 -90,-2.608 h -13.54 l 6.185,12.716 c 0.07,0.142 0.105,0.31 0.105,0.491 -0.005,0.168 -0.035,0.331 -0.1,0.47 h 12.075 l -1.31,-2.692 c -0.155,0.314 -0.435,0.525 -0.765,0.525 h -6.955 l -1.59,-3.261 h 7.04 l -1.31,-2.686 c -0.155,0.312 -0.44,0.523 -0.76,0.523 h -6.02 l -1.91,-3.927 h 8.75 c 0.35,0 1.095,0.189 1.375,0.449 m -29.105,-2.608 6.185,12.716 c 0.07,0.148 0.11,0.316 0.11,0.497 -0.005,0.17 -0.04,0.33 -0.105,0.469 H -99.6 l -1.305,-2.689 c -0.155,0.313 -0.44,0.525 -0.765,0.525 h -6.93 l -1.585,-3.263 h 7.005 l -1.305,-2.686 c -0.155,0.314 -0.44,0.523 -0.76,0.523 h -5.995 l -2.965,-6.092 z"
             style="fill:#006260;fill-opacity:1;fill-rule:nonzero;stroke:none"
             id="path3229" />
        </g>
        <g
           id="g3231"
           transform="translate(2700.5105,54.0749)">
          <path
             d="m 0,0 c -1.165,0.523 -2.635,0.977 -4.165,1.117 -1.735,0.17 -4,0.065 -4.035,-1.197 -0.04,-1.272 2.305,-1.508 4.455,-2.176 2.575,-0.814 3.395,-2.361 3.34,-3.906 -0.065,-2.066 -1.395,-4.945 -6.73,-4.945 -1.99,0 -5.03,0.605 -7.215,1.681 l 1.375,2.832 c 0.11,-1.373 4.07,-1.931 4.58,-1.982 1.985,-0.188 4.3,-0.225 4.36,1.521 0.035,1.221 -1.405,1.59 -4.19,2.327 -2.085,0.552 -3.5,1.621 -3.43,3.919 0.045,1.332 1.11,4.789 7.635,4.17 1.33,-0.125 3.34,-0.455 5.08,-1.144"
             style="fill:#006260;fill-opacity:1;fill-rule:nonzero;stroke:none"
             id="path3233" />
        </g>
        <g
           id="g3235"
           transform="translate(2712.3105,48.741)">
          <path
             d="m 0,0 3.56,7.312 c 0.165,0.336 0.155,0.743 0.005,1.059 h 4.08 L 3.28,-0.586 c -1.79,-3.686 -5.22,-5.268 -8.445,-5.268 -5.265,0 -6.585,3.631 -5.27,6.338 l 3.33,6.828 c 0.165,0.336 0.16,0.743 0.005,1.059 h 4.085 l -4.36,-8.945 c -0.74,-1.518 -0.04,-3.188 2.255,-3.188 2.605,0 4.165,1.801 5.12,3.762"
             style="fill:#006260;fill-opacity:1;fill-rule:nonzero;stroke:none"
             id="path3237" />
        </g>
        <g
           id="g3239"
           transform="translate(2667.8154,46.1569)">
          <path
             d="m 0,0 -1.27,-2.607 h -13.26 l 6.18,12.697 c 0.065,0.143 0.105,0.318 0.105,0.498 0,0.162 -0.035,0.324 -0.095,0.461 H 3.49 L 2.18,8.361 C 2.035,8.682 1.755,8.889 1.44,8.889 l -6.815,0.006 -1.59,-3.262 h 6.9 L -1.375,2.949 C -1.52,3.264 -1.805,3.475 -2.12,3.475 h -5.895 l -1.91,-3.92 h 8.57 c 0.34,0 1.085,0.183 1.355,0.445"
             style="fill:#006260;fill-opacity:1;fill-rule:nonzero;stroke:none"
             id="path3241" />
        </g>
        <g
           id="g3243"
           transform="translate(2645.6155,43.5554)">
          <path
             d="m 0,0 c 7.36,0 9.955,5.422 9.95,9.025 0,4.27 -2.76,4.602 -5.67,4.631 h -5.87 c 0.055,-0.14 0.09,-0.299 0.09,-0.467 0,-0.177 -0.04,-0.345 -0.105,-0.492 L -7.78,0 m 4.635,2.205 4.45,9.141 H 4.12 C 6.045,11.332 6.655,10.32 6.655,9.25 6.655,5.937 3.95,2.205 -0.665,2.205 Z"
             style="fill:#006260;fill-opacity:1;fill-rule:nonzero;stroke:none"
             id="path3245" />
        </g>
        <g
           id="g3247"
           transform="translate(2678.5806,57.2117)">
          <path
             d="m 0,0 -5.525,-11.332 h 5.39 c 0.395,0 1.1,0.217 1.345,0.445 L -0.135,-13.65 H -10.2 l 6.175,12.693 c 0.07,0.148 0.11,0.316 0.11,0.496 0,0.168 -0.03,0.324 -0.09,0.461"
             style="fill:#006260;fill-opacity:1;fill-rule:nonzero;stroke:none"
             id="path3249" />
        </g>
        <g
           id="g3251"
           transform="translate(2771.6855,57.237)">
          <path
             d="m 0,0 h 13.765 l -1.31,-2.699 c -0.15,0.312 -0.425,0.523 -0.745,0.523 H 8.075 l -5.6,-11.482 H -1.08 L 4.515,-2.176 H -0.01 c -0.42,0 -0.925,-0.236 -1.305,-0.523"
             style="fill:#006260;fill-opacity:1;fill-rule:nonzero;stroke:none"
             id="path3253" />
        </g>
        <g
           id="g3255"
           transform="translate(2723.2305,43.3112)">
          <path
             d="m 0,0 c 7.37,0 9.965,5.418 9.96,9.025 0,4.266 -2.765,4.602 -5.67,4.625 h -5.875 c 0.055,-0.136 0.09,-0.292 0.09,-0.459 0,-0.179 -0.04,-0.347 -0.105,-0.5 L -7.78,0 m 4.64,2.199 4.455,9.147 h 2.81 C 6.05,11.326 6.66,10.316 6.66,9.252 6.665,5.94 3.955,2.199 -0.66,2.199 Z"
             style="fill:#006260;fill-opacity:1;fill-rule:nonzero;stroke:none"
             id="path3257" />
        </g>
        <g
           id="g3259"
           transform="translate(2752.4104,46.1569)">
          <path
             d="m 0,0 -1.275,-2.603 h -13.26 l 6.18,12.693 c 0.065,0.143 0.105,0.318 0.105,0.498 0,0.162 -0.03,0.324 -0.09,0.461 H 3.485 L 2.18,8.367 C 2.03,8.682 1.755,8.895 1.435,8.895 h -6.81 L -6.965,5.633 H -0.07 L -1.38,2.949 C -1.525,3.264 -1.805,3.475 -2.125,3.475 H -8.02 l -1.905,-3.92 h 8.57 c 0.34,0 1.08,0.183 1.355,0.445"
             style="fill:#006260;fill-opacity:1;fill-rule:nonzero;stroke:none"
             id="path3261" />
        </g>
        <g
           id="g3263"
           transform="translate(2768.1956,54.319)">
          <path
             d="M 0,0 C -1.165,0.531 -2.635,0.975 -4.165,1.117 -5.9,1.293 -8.16,1.182 -8.205,-0.08 c -0.035,-1.266 2.31,-1.502 4.46,-2.17 2.58,-0.82 3.39,-2.369 3.345,-3.914 -0.07,-2.064 -1.4,-4.941 -6.74,-4.941 -1.985,0 -5.025,0.607 -7.21,1.679 l 1.37,2.836 c 0.12,-1.379 4.08,-1.935 4.585,-1.98 1.98,-0.196 4.3,-0.227 4.36,1.519 0.035,1.217 -1.4,1.582 -4.19,2.321 -2.085,0.552 -3.5,1.623 -3.425,3.92 0.04,1.341 1.105,4.789 7.63,4.169 1.33,-0.123 3.345,-0.455 5.08,-1.144"
             style="fill:#006260;fill-opacity:1;fill-rule:nonzero;stroke:none"
             id="path3265" />
        </g>
      </g>
    </g>
  </g>
</svg>
