<?xml version="1.0" encoding="utf-8"?>
<!-- Generator: Adobe Illustrator 23.0.1, SVG Export Plug-In . SVG Version: 6.00 Build 0)  -->
<svg version="1.1" id="Livello_1" xmlns="http://www.w3.org/2000/svg" xmlns:xlink="http://www.w3.org/1999/xlink" x="0px" y="0px"
	 viewBox="0 0 582 150" enable-background="new 0 0 582 150" xml:space="preserve">
<g>
	<path fill-rule="evenodd" clip-rule="evenodd" fill="#006564" d="M63.9,51.3l-35.2,3.8L4.9,104.7c18.8,0,28.4-2,39.4-18.4
		C48.9,79.2,57.1,65.2,63.9,51.3"/>
	<path fill-rule="evenodd" clip-rule="evenodd" fill="#006564" d="M159,5.5l2.7-5.5h-74C62.6,0,49.8,8.9,42,25.5
		c-6.1,13-6.1,13-6.1,13h33.6C81.5,14.3,96.1,6,131.7,5.5H159z"/>
	<path fill-rule="evenodd" clip-rule="evenodd" fill="#006564" d="M156.8,10.8c-45.2,0.4-52.7,8.2-62.9,27.6l50,0L156.8,10.8z"/>
	<path fill-rule="evenodd" clip-rule="evenodd" fill="#DC062B" d="M108.9,79c-3,17.5-16.1,31.3-32.8,34.5c0,0-9.9,1.9-16.5,1.9H0
		l2.3-5c0,0,20.2-0.1,22.9-0.1c6.9,0.1,19.6-1.5,19.6-1.5c14.2-1.6,25.4-11.4,29-25.5l4-14.4C80,57,89.9,48,101.9,48l38.6-2.5
		l-1.8,3.8l-11.9,0.8c-8.9,0.8-16,8-16.9,17.2L108.9,79z"/>
	<path fill="#006564" d="M255.1,96.8c2-9.3,10-14.8,17.1-16.1c5-0.8,9.8-0.8,18.3,1.6l-2.4,5.3c-14.5-5.4-25.5,1.2-25.5,13.4
		c0.1,6.1,4,9.7,9.4,10.3c1.8,0.1,7.9-0.4,11.9-3.7l0.2,6.3c-5.6,3.1-16.1,3.4-22.4,0.1C256.7,111.5,253.3,106.1,255.1,96.8
		 M211.6,108.7l-2.9,6.4h-31L192.1,84c0.2-0.4,0.3-0.8,0.3-1.2c0-0.4-0.1-0.8-0.3-1.1h27.6l-3.1,6.6c-0.4-0.8-1-1.3-1.7-1.3H199
		l-3.7,8l16.1,0l-3.1,6.6c-0.3-0.8-1-1.3-1.7-1.3h-13.8l-4.4,9.7h20C209.2,109.9,210.9,109.4,211.6,108.7 M213,115.2L227.4,84
		c0.1-0.4,0.2-0.8,0.2-1.2c0-0.4,0-0.8-0.2-1.1l16.6,0c3.2,0,9.3-0.1,9.3,7.9c0,7.2-6.6,11.3-9.3,11.7l2.4,11.6c0.2,1.2,1,2,1.5,2.4
		H239l-2.6-13.9h-8.7l-6.4,13.9H213z M245.4,89.5c0-1.1-0.8-2.6-2.8-2.6h-8.3l-4.2,9.1h7.7C242.4,96,245.4,93,245.4,89.5
		 M356.5,81.6c0,0.8-0.3,1.7-1,2.7l-25.2,30.8h7.2l6-7.6H359l0.1,7.6h7.6l-1.6-33.6H356.5z M347.8,102.1l10.8-13.8l0.2,13.8H347.8z
		 M173.4,91.6l-10.9,23.6h8.3l15.5-33.6H177l-15.9,14.1l-3.7-14.1h-9.1c0.6,0.4,1.5,2.2,0.5,4.4l-13.5,29.2h5.8l10.9-23.6l4,15.5
		L173.4,91.6z M394.5,81.6l-12.9,27.9h12.6c0.9,0,2.6-0.5,3.1-1.1l-3.1,6.8h-23.5L385.1,84c0.1-0.4,0.2-0.8,0.2-1.2
		c0-0.4-0.1-0.8-0.2-1.2H394.5z M314.6,81.5h32.2l-3,6.7c-0.3-0.8-1-1.3-1.8-1.3h-8.6l-13.1,28.4h-8.4l13.1-28.4h-10.6
		c-1,0-2.2,0.6-3,1.3L314.6,81.5z M413.4,81.6c0.1,0.3,0.2,0.7,0.2,1.1c0,0.5-0.1,0.9-0.2,1.2L399,115.2h8.3l15.5-33.6H413.4z
		 M440.3,81.6c0,0.8-0.3,1.7-1.1,2.7L414,115.2h7.3l6-7.6h15.4l0.2,7.6h7.6l-1.6-33.6H440.3z M431.5,102.1l10.8-13.8l0.2,13.8H431.5
		z M301.3,81.6c0.2,0.3,0.3,0.7,0.3,1.1c0,0.5-0.1,0.9-0.3,1.2l-14.4,31.2h8.3l15.6-33.6H301.3z"/>
	<path fill="#006564" d="M503.7,89.7c0-8-6.1-7.9-9.2-7.9h-16.7c0.2,0.3,0.3,0.7,0.3,1.2c0,0.4-0.1,0.9-0.3,1.2l-14.4,31.2h8.2
		l6.5-13.9h8.6l2.7,13.9h9c-0.6-0.3-1.3-1.2-1.5-2.4l-2.5-11.6C497.1,101.1,503.7,96.9,503.7,89.7z M488.3,96.2h-7.8l4.2-9.1h8.3
		c1.9,0,2.8,1.5,2.8,2.6C495.7,93.2,492.7,96.2,488.3,96.2z"/>
	<path fill="#006564" d="M534.5,81.6h-8.6c0,0.8-0.3,1.7-1,2.7l-25.3,30.8h7.3l6-7.6h15.4l0.2,7.6h7.6L534.5,81.6z M517.1,102.1
		L528,88.3l0.2,13.8H517.1z"/>
	<path fill="#006564" d="M579.2,81.6l-12.9,27.9h12.6c0.9,0,2.6-0.5,3.1-1.1l-3.1,6.8h-23.5L569.8,84c0.1-0.3,0.3-0.8,0.3-1.2
		c0-0.4-0.1-0.8-0.2-1.2H579.2z"/>
	<path fill="#006564" d="M553.5,81.6c0.2,0.3,0.2,0.7,0.2,1.1c0,0.5-0.1,0.9-0.3,1.2l-14.4,31.2h8.3l15.6-33.6H553.5z"/>
	<path fill-rule="evenodd" clip-rule="evenodd" fill="#006564" d="M17.7,139.7v-0.2H9v3.3h4.6c-0.2,0.9-0.3,1.2-0.7,1.7
		c-0.8,1.1-2.3,1.8-3.8,1.8c-3.1,0-5.3-2.4-5.3-5.9c0-3.4,2.2-5.9,5.3-5.9c0.9,0,1.9,0.2,2.7,0.7c0.8,0.5,1.1,0.8,1.8,1.7l3.1-1.9
		c-0.8-1.1-1-1.6-1.8-2.2c-1.5-1.3-3.6-2-5.8-2c-5.3,0-9,3.9-9,9.5c0,5.6,3.7,9.5,8.9,9.5c3.4,0,6.4-1.8,7.8-4.8
		C17.4,143.7,17.7,142.1,17.7,139.7 M36.2,149.5l-5-7.6c0.7-0.2,1.4-0.3,1.9-0.8c1.4-0.9,2-2.6,2-4.3c0-1-0.3-2.1-0.8-3
		c-1.3-2.2-3.7-2.3-6-2.3h-4.9v18H27v-7.6l4.6,7.6H36.2z M31.3,137c0,0.4-0.1,0.9-0.3,1.3c-0.6,1-1.5,1.1-2.6,1.1h-1.3v-4.8h1.3
		C29.9,134.6,31.3,135.2,31.3,137 M54.7,141.5v-10.1H51v11.3c0,2.2-0.9,3.7-3.2,3.7c-1,0-2.2-0.4-2.8-1.3c-0.6-0.8-0.6-1.6-0.6-2.6
		v-11.2h-3.7v11.3c0,1.1,0.1,2.2,0.4,3.3c1,2.8,3.9,4,6.5,4c2.2,0,4.5-0.9,5.8-2.8C54.5,145.5,54.7,143.5,54.7,141.5 M72.7,137.1
		c0-1.2-0.3-2.4-0.9-3.4c-1.2-1.6-2.8-2.1-4.7-2.2H66h-5.1v18h3.8v-6.8h1.8c1.6,0,3.4-0.2,4.6-1.5C72.2,140.1,72.7,138.7,72.7,137.1
		 M69,137.1c0,1.7-1.1,2.3-2.6,2.3h-1.6v-4.6h1.6c0.4,0,0.8,0,1.2,0.1C68.5,135.1,69,136,69,137.1 M89.5,137.1
		c0-1.2-0.3-2.4-0.9-3.4c-1.2-1.6-2.8-2.1-4.7-2.2h-1.1h-5.1v18h3.8v-6.8h1.8c1.7,0,3.4-0.2,4.6-1.5C89,140.1,89.5,138.7,89.5,137.1
		 M85.8,137.1c0,1.7-1.2,2.3-2.6,2.3h-1.7v-4.6h1.6c0.4,0,0.8,0,1.2,0.1C85.3,135.1,85.8,136,85.8,137.1 M112,140.5
		c0-5.4-4-9.5-9.3-9.5c-5.3,0-9.2,4-9.2,9.6c0,5.5,3.9,9.3,9.4,9.3C108.2,150,112,146.1,112,140.5 M108.1,140.5
		c0,3.3-2.2,5.8-5.2,5.8c-3.2,0-5.5-2.5-5.5-5.8c0-3.2,2.4-5.8,5.4-5.8C105.8,134.8,108.1,137.3,108.1,140.5 M134.6,142v-3.6h-6.3
		v-3.5h6.3v-3.4h-10.1v18h3.8V142H134.6z M149.5,135v-3.5h-9.9v18h9.9v-3.6h-6.1V142h6v-3.5h-6V135H149.5z M168.1,149.5l-5.1-7.6
		c0.7-0.2,1.4-0.3,1.9-0.8c1.4-0.9,2-2.6,2-4.3c0-1-0.2-2.1-0.8-3c-1.3-2.2-3.7-2.3-6-2.3h-4.8v18h3.7v-7.6l4.6,7.6H168.1z
		 M163.3,137c0,0.4-0.1,0.9-0.3,1.3c-0.6,1-1.5,1.1-2.6,1.1H159v-4.8h1.3C161.8,134.6,163.3,135.2,163.3,137 M185.3,149.5l-5-7.6
		c0.7-0.2,1.4-0.3,1.9-0.8c1.4-0.9,2-2.6,2-4.3c0-1-0.3-2.1-0.8-3c-1.3-2.2-3.7-2.3-6-2.3h-4.9v18h3.7v-7.6l4.6,7.6H185.3z
		 M180.5,137c0,0.4-0.1,0.9-0.3,1.3c-0.6,1-1.6,1.1-2.6,1.1h-1.3v-4.8h1.3C179,134.6,180.5,135.2,180.5,137 M207.8,140.5
		c0-5.4-4-9.5-9.4-9.5c-5.3,0-9.2,4-9.2,9.6c0,5.5,3.9,9.3,9.4,9.3C204,150,207.8,146.1,207.8,140.5 M203.9,140.5
		c0,3.3-2.3,5.8-5.3,5.8c-3.1,0-5.6-2.5-5.6-5.8c0-3.2,2.4-5.8,5.5-5.8C201.6,134.8,203.9,137.3,203.9,140.5 M228.5,131.4h-4.1
		l-4.4,12.9l-4.4-12.9h-4.2l6.5,18h3.7L228.5,131.4z M237,131.4h-3.8v18h3.8V131.4z M253.8,135v-3.5h-9.9v18h9.8v-3.6h-6.1V142h6
		v-3.5h-6V135H253.8z M281,140.3c0-1.8-0.4-3.3-1.3-4.9c-2.1-3.6-5.5-3.9-9.2-3.9H267v18h4.1c2.5,0,4.7-0.1,6.8-1.7
		C280,146.1,281,143,281,140.3 M277.3,140.4c0,3.6-1.8,6-5.5,6h-1v-11.7h0.5c1.4,0,2.9,0.1,4,1C276.8,136.8,277.3,138.7,277.3,140.4
		 M296.6,135v-3.5h-9.8v18h9.8v-3.6h-6.1V142h6v-3.5h-6V135H296.6z M312.2,149.5V146h-6v-14.5h-3.7v18H312.2z M327.3,149.5V146h-6
		v-14.5h-3.8v18H327.3z M350.1,140.5c0-5.4-4-9.5-9.3-9.5c-5.3,0-9.2,4-9.2,9.6c0,5.5,3.8,9.3,9.3,9.3
		C346.4,150,350.1,146.1,350.1,140.5 M346.2,140.5c0,3.3-2.2,5.8-5.2,5.8c-3.2,0-5.6-2.5-5.6-5.8c0-3.2,2.4-5.8,5.5-5.8
		C344,134.8,346.2,137.3,346.2,140.5 M373.3,144c0-5.6-7-5.1-7-7.9c0-0.9,0.8-1.6,1.7-1.6c1.2,0,1.9,0.8,2.6,1.7l2.4-2.8
		c-1.5-1.6-2.8-2.4-5-2.4c-2.9,0-5.6,2-5.6,5.2c0,3.1,2.3,4.5,4.7,5.7c0.5,0.2,1.1,0.5,1.6,0.9c0.4,0.4,0.7,0.9,0.7,1.6
		c0,1.2-1.1,2.2-2.3,2.2c-1.4,0-2.3-1-3.3-2.1l-2.5,2.8c1.6,1.6,3.3,2.6,5.6,2.6C370.4,149.9,373.3,147.8,373.3,144 M388.9,134.9
		v-3.5h-11.3v3.5h3.8v14.5h3.8v-14.5H388.9z M409.4,149.5l-7.2-18h-4l-6.8,18h4.1l1.3-3.6h7.2l1.4,3.6H409.4z M402.7,142.5h-4.8
		l2.4-7.2L402.7,142.5z M423,134.9v-3.5h-11.2v3.5h3.7v14.5h3.8v-14.5H423z M445.4,140.5c0-5.4-3.9-9.5-9.3-9.5
		c-5.3,0-9.2,4-9.2,9.6c0,5.5,3.9,9.3,9.4,9.3C441.6,150,445.4,146.1,445.4,140.5 M441.5,140.5c0,3.3-2.2,5.8-5.2,5.8
		c-3.2,0-5.5-2.5-5.5-5.8c0-3.2,2.3-5.8,5.4-5.8C439.2,134.8,441.5,137.3,441.5,140.5 M461.7,131.4h-3.8v18h3.8V131.4z M478,134.9
		v-3.5h-11.2v3.5h3.7v14.5h3.8v-14.5H478z M498.5,149.5l-7.2-18h-4l-6.8,18h4.1l1.3-3.6h7.2l1.4,3.6H498.5z M491.8,142.5H487
		l2.3-7.2L491.8,142.5z M513.1,149.5V146h-5.9v-14.5h-3.8v18H513.1z M522.2,131.4h-3.8v18h3.8V131.4z M545,149.5l-7.2-18h-4.1
		l-6.8,18h4.1l1.2-3.6h7.2l1.4,3.6H545z M538.3,142.5h-4.8l2.3-7.2L538.3,142.5z M564.9,149.5v-18h-3.6l0.1,11.9l-8.1-11.9h-3.5v18
		h3.6l0-12.1l8.2,12.1H564.9z M581.1,135v-3.5h-9.9v18h9.9v-3.6h-6.1V142h6v-3.5h-6V135H581.1z"/>
</g>
</svg>
